<?xml version="1.0" encoding="UTF-8"?>
<svg width="513px" height="409px" viewBox="0 0 513 409" version="1.1" xmlns="http://www.w3.org/2000/svg" xmlns:xlink="http://www.w3.org/1999/xlink">
    <title>Shape</title>
    <defs>
        <linearGradient x1="50%" y1="0%" x2="50%" y2="100%" id="linearGradient-1">
            <stop stop-color="#A20014" offset="0%"></stop>
            <stop stop-color="#D0021B" offset="100%"></stop>
        </linearGradient>
    </defs>
    <g id="Page-1" stroke="none" stroke-width="1" fill="none" fill-rule="evenodd">
        <g id="Icon" transform="translate(1.000000, 0.000000)" fill="url(#linearGradient-1)" fill-rule="nonzero">
            <path d="M146,0 L146,104 L110,104 L110,0 L146,0 Z M405,0 L405,104 L370,104 L370,0 L405,0 Z M512,245.337665 L435.311432,245.337665 C430.151974,231.417915 419.170111,220.342109 405.311634,215.069564 L405.311634,104 L369.714257,104 L369.714257,214.769594 C355.475306,219.909461 344.164852,231.146788 338.907393,245.337665 L289.509187,245.337665 L228.506523,245.337665 L176.272056,245.337665 C171.07801,231.279467 159.928969,220.128669 145.897549,214.919579 L145.897549,104 L110.300172,104 L110.300172,214.884967 C96.2745171,220.099826 85.1600647,231.279467 79.9602535,245.337665 L-1,245.337665 L-1,280.959071 L79.9371945,280.959071 C87.1834946,300.589783 105.993898,314.642211 128.095978,314.642211 C150.203823,314.642211 169.014226,300.584014 176.266291,280.959071 L228.500759,280.959071 L228.500759,316.159366 C215.74335,325.521883 207.367158,340.503064 207.367158,357.514809 C207.367158,385.90233 230.443482,409 258.811853,409 C287.180225,409 310.256549,385.90233 310.256549,357.514809 C310.256549,340.64728 302.070593,325.70648 289.497657,316.326657 L289.497657,280.959071 L338.890099,280.959071 C346.153693,300.584014 364.987156,314.642211 387.100765,314.642211 C409.214375,314.642211 428.053602,300.584014 435.311432,280.959071 L511.98847,280.959071 L511.98847,245.337665 L512,245.337665 Z M170,245 L158.90948,245 C155.807555,239.651461 151.348539,235.192445 146,232.09052 L146,221 C156.776907,225.57876 165.42124,234.223093 170,245 Z M128,233 C144.541353,233 158,246.459944 158,263.002892 C158,279.540056 144.541353,293 128,293 C111.458647,293 98,279.540056 98,263.002892 C98,246.45416 111.458647,233 128,233 Z M128,194 C132.416479,194 136,197.583521 136,202 C136,206.416479 132.416479,210 128,210 C123.583521,210 120,206.416479 120,202 C120,197.583521 123.577528,194 128,194 Z M110,221 L110,232.09052 C104.647031,235.192445 100.189074,239.645759 97.087886,245 L86,245 C90.5833729,234.223093 99.2256532,225.57876 110,221 Z M72,271 C67.5835206,271 64,267.416479 64,263 C64,258.583521 67.5835206,255 72,255 C76.4164794,255 80,258.583521 80,263 C80,267.416479 76.4164794,271 72,271 Z M128,309 C109.149199,309 92.9395808,297.438934 86,281 L97.1919441,281 C103.354706,291.704691 114.840115,298.943377 128,298.943377 C141.159885,298.943377 152.645294,291.704691 158.808056,281 L170,281 C163.060419,297.438934 146.845047,309 128,309 Z M187,271 C182.583521,271 179,267.416479 179,263 C179,258.583521 182.583521,255 187,255 C191.416479,255 195,258.583521 195,263 C195,267.416479 191.416479,271 187,271 Z M274,254 C278.416479,254 282,257.583521 282,262 C282,266.416479 278.416479,270 274,270 C269.583521,270 266,266.416479 266,262 C266,257.583521 269.577528,254 274,254 Z M274,293 C278.416479,293 282,296.583521 282,301 C282,305.416479 278.416479,309 274,309 C269.583521,309 266,305.416479 266,301 C266,296.583521 269.577528,293 274,293 Z M259,328 C275.53557,328 289,341.458647 289,358 C289,374.541353 275.541353,388 259,388 C242.458647,388 229,374.541353 229,358 C229,341.458647 242.458647,328 259,328 Z M245.635043,254.026022 C250.038404,254.379489 253.327446,258.231681 252.973978,262.635043 C252.620511,267.038404 248.768319,270.327446 244.364957,269.973978 C239.961596,269.620511 236.672554,265.768319 237.026022,261.364957 C237.373498,256.961596 241.231681,253.672554 245.635043,254.026022 Z M245,293 C249.416479,293 253,296.583521 253,301 C253,305.416479 249.416479,309 245,309 C240.583521,309 237,305.416479 237,301 C237,296.583521 240.577528,293 245,293 Z M305,357.177508 C305,382.444926 284.587014,403 259.5,403 C234.407244,403 214,382.444926 214,357.177508 C214,343.589766 219.943021,331.39549 229.308304,323 L229.308304,338.432206 C225.954947,343.890431 223.979682,350.302689 223.979682,357.177508 C223.979682,376.899971 239.913869,392.950853 259.505742,392.950853 C279.097615,392.950853 295.031802,376.905753 295.031802,357.177508 C295.031802,350.557097 293.20583,344.370338 290.076413,339.0451 L290.076413,323.341139 C299.217756,331.725065 305,343.769008 305,357.177508 Z M429,245 L417.718841,245 C414.646377,239.74012 410.257971,235.348263 405,232.232575 L405,221 C415.765217,225.662036 424.402899,234.273293 429,245 Z M357,263.002892 C357,246.459944 370.458647,233 387,233 C403.541353,233 417,246.459944 417,263.002892 C417,279.540056 403.541353,293 387,293 C370.458647,293 357,279.54584 357,263.002892 Z M387,194 C391.416479,194 395,197.583521 395,202 C395,206.416479 391.416479,210 387,210 C382.583521,210 379,206.416479 379,202 C379,197.583521 382.577528,194 387,194 Z M370,221 L370,232.381346 C364.328271,235.598583 359.620327,240.31523 356.360981,246 L345,246 C349.754673,234.707202 358.773364,225.693034 370,221 Z M325,271 C320.583521,271 317,267.416479 317,263 C317,258.583521 320.583521,255 325,255 C329.416479,255 333,258.583521 333,263 C333,267.416479 329.416479,271 325,271 Z M386.997123,309 C368.150784,309 351.934302,297.438934 345,281 L356.186956,281 C362.35014,291.704691 373.836336,298.943377 386.997123,298.943377 C400.157909,298.943377 411.644105,291.704691 417.807289,281 L429,281 C422.065698,297.438934 405.849216,309 386.997123,309 Z M447,271 C442.583521,271 439,267.416479 439,263 C439,258.583521 442.583521,255 447,255 C451.416479,255 455,258.583521 455,263 C455,267.416479 451.416479,271 447,271 Z" id="Shape"></path>
        </g>
    </g>
</svg>