<svg width="74" height="81" xmlns="http://www.w3.org/2000/svg"><path d="M.414 61.156c0 1.563.577 2.824 1.733 3.784 1.156.96 2.775 1.44 4.859 1.44h14.94c.099 2.475.798 4.802 2.1 6.983a15.215 15.215 0 0 0 5.25 5.274c2.197 1.334 4.711 2.002 7.544 2.002 2.832 0 5.346-.668 7.543-2.002 2.198-1.335 3.94-3.085 5.225-5.25a15.054 15.054 0 0 0 2.124-7.006h14.941c2.051 0 3.663-.48 4.834-1.44 1.172-.96 1.758-2.222 1.758-3.785 0-1.888-.805-3.719-2.417-5.493a149.612 149.612 0 0 0-4.956-5.2c-.716-.749-1.302-1.701-1.758-2.857a18.985 18.985 0 0 1-1.025-3.662 24.99 24.99 0 0 1-.39-3.637c-.033-8.138-1.132-14.755-3.296-19.849-2.165-5.094-5.868-8.65-11.109-10.669-.716-2.441-2.075-4.54-4.077-6.299C42.235 1.732 39.769.853 36.84.853c-2.93 0-5.396.88-7.398 2.637-2.002 1.758-3.361 3.858-4.077 6.3-5.241 2.017-8.952 5.574-11.133 10.668-2.181 5.094-3.288 11.71-3.32 19.849 0 1.139-.114 2.351-.342 3.637a18.985 18.985 0 0 1-1.025 3.662c-.456 1.156-1.042 2.108-1.758 2.857a149.612 149.612 0 0 0-4.956 5.2C1.219 57.437.414 59.268.414 61.156Zm8.545-1.367v-.488c.423-.423 1.098-1.09 2.026-2.002a55.954 55.954 0 0 0 2.808-2.979c.748-.879 1.432-1.912 2.05-3.1.619-1.188 1.107-2.629 1.465-4.322.358-1.692.554-3.727.586-6.103 0-6.087.537-10.856 1.612-14.307 1.074-3.45 2.514-5.99 4.32-7.617 1.807-1.628 3.785-2.734 5.933-3.32.424-.098.749-.269.977-.513.228-.244.342-.594.342-1.05.032-2.018.57-3.646 1.611-4.883 1.042-1.237 2.425-1.855 4.15-1.855 1.726 0 3.11.618 4.15 1.855 1.042 1.237 1.563 2.865 1.563 4.883 0 .456.114.806.342 1.05.228.244.554.415.977.513 2.18.586 4.166 1.692 5.957 3.32 1.79 1.628 3.222 4.167 4.297 7.617 1.074 3.45 1.627 8.22 1.66 14.307.032 2.376.228 4.41.586 6.103.358 1.693.838 3.134 1.44 4.322.602 1.188 1.294 2.221 2.075 3.1a55.954 55.954 0 0 0 2.808 2.979c.928.911 1.603 1.579 2.026 2.002v.488H8.96Zm19.775 6.592h16.21c-.162 2.506-.984 4.492-2.465 5.957-1.481 1.465-3.36 2.197-5.64 2.197-2.278 0-4.158-.732-5.64-2.197-1.48-1.465-2.302-3.45-2.465-5.957Z" fill="#fff" fill-rule="nonzero"/></svg>
