<?xml version="1.0" encoding="UTF-8"?>
<svg width="74px" height="81px" viewBox="0 0 74 81" version="1.1" xmlns="http://www.w3.org/2000/svg" xmlns:xlink="http://www.w3.org/1999/xlink">
    <g id="Page-1" stroke="none" stroke-width="1" fill="none" fill-rule="evenodd">
        <g id="bell" transform="translate(-1413.000000, -620.000000)" fill="#ffffff" fill-rule="nonzero">
            <g id="Symbols" transform="translate(525.102020, 617.777300)">
                <g id="Regular-S" transform="translate(888.311650, 3.076200)">
                    <path d="M2.66453526e-15,60.3027 C2.66453526e-15,61.8652333 0.5778,63.1266333 1.7334,64.0869 C2.88902,65.0472067 4.50849667,65.52736 6.59183,65.52736 L21.53323,65.52736 C21.6308967,68.00132 22.3307633,70.3287933 23.63283,72.50978 C24.9348967,74.6907707 26.6845633,76.448584 28.88183,77.78322 C31.0790967,79.1178533 33.5937633,79.78517 36.42583,79.78517 C39.25783,79.78517 41.7724633,79.1178533 43.96973,77.78322 C46.1669967,76.448584 47.90853,74.6989107 49.19433,72.5342 C50.48013,70.36948 51.18813,68.0338667 51.31833,65.52736 L66.25973,65.52736 C68.31053,65.52736 69.9218633,65.0472067 71.09373,64.0869 C72.2655967,63.1266333 72.85153,61.8652333 72.85153,60.3027 C72.85153,58.4147 72.0458633,56.5836667 70.43453,54.8096 C68.8231967,53.0355333 67.1711967,51.3021333 65.47853,49.6094 C64.7623967,48.8606667 64.1764633,47.9085 63.72073,46.7529 C63.2649967,45.5973 62.9231967,44.3766 62.69533,43.0908 C62.4674633,41.805 62.3372633,40.5924333 62.30473,39.4531 C62.27213,31.3151 61.1734967,24.6989 59.00883,19.6045 C56.8440967,14.5101 53.1412967,10.9538 47.90043,8.9356 C47.18423,6.4942 45.8251633,4.39456667 43.82323,2.6367 C41.8212967,0.8789 39.3554967,0 36.42583,0 C33.4960967,0 31.0302633,0.8789 29.02833,2.6367 C27.0263967,4.39456667 25.66733,6.4942 24.95113,8.9356 C19.7102633,10.9538 15.99933,14.5101 13.81833,19.6045 C11.63733,24.6989 10.5305633,31.3151 10.49803,39.4531 C10.49803,40.5924333 10.3840967,41.805 10.15623,43.0908 C9.92836333,44.3766 9.58656333,45.5973 9.13083,46.7529 C8.67509667,47.9085 8.08916333,48.8606667 7.37303,49.6094 C5.68036333,51.3021333 4.02836333,53.0355333 2.41703,54.8096 C0.805676667,56.5836667 2.66453526e-15,58.4147 2.66453526e-15,60.3027 Z M8.54493,58.9356 L8.54493,58.4473 C8.96813,58.0241 9.64359667,57.3567667 10.57133,56.4453 C11.4990633,55.5338333 12.43493,54.541 13.37893,53.4668 C14.1275967,52.5879333 14.8111967,51.5544 15.42973,50.3662 C16.0481967,49.1780667 16.5364633,47.7376333 16.89453,46.0449 C17.2525967,44.3522333 17.4478967,42.3177333 17.48043,39.9414 C17.48043,33.8542 18.0175633,29.0853333 19.09183,25.6348 C20.16603,22.1842667 21.6064633,19.6452 23.41313,18.0176 C25.21973,16.39 27.1972633,15.2832333 29.34573,14.6973 C29.7688633,14.5996333 30.0943633,14.4287333 30.32223,14.1846 C30.5500967,13.9404667 30.66403,13.5905333 30.66403,13.1348 C30.69663,11.1165333 31.2337633,9.48893333 32.27543,8.252 C33.3170967,7.015 34.7005633,6.3965 36.42583,6.3965 C38.15103,6.3965 39.5344633,7.015 40.57613,8.252 C41.6177967,9.48893333 42.13863,11.1165333 42.13863,13.1348 C42.13863,13.5905333 42.2525633,13.9404667 42.48043,14.1846 C42.7082967,14.4287333 43.03383,14.5996333 43.45703,14.6973 C45.63803,15.2832333 47.6236967,16.39 49.41403,18.0176 C51.20443,19.6452 52.63673,22.1842667 53.71093,25.6348 C54.78513,29.0853333 55.33853,33.8542 55.37113,39.9414 C55.4036633,42.3177333 55.5989633,44.3522333 55.95703,46.0449 C56.3150967,47.7376333 56.79523,49.1780667 57.39743,50.3662 C57.9996967,51.5544 58.69143,52.5879333 59.47263,53.4668 C60.41663,54.541 61.3524967,55.5338333 62.28023,56.4453 C63.2079633,57.3567667 63.88343,58.0241 64.30663,58.4473 L64.30663,58.9356 L8.54493,58.9356 Z M28.32033,65.52736 L44.53123,65.52736 C44.3684967,68.0338667 43.5465633,70.0195433 42.06543,71.48439 C40.5842967,72.9492367 38.70443,73.68166 36.42583,73.68166 C34.1471633,73.68166 32.2672633,72.9492367 30.78613,71.48439 C29.3049967,70.0195433 28.4830633,68.0338667 28.32033,65.52736 Z" id="Shape"></path>
                </g>
            </g>
        </g>
    </g>
</svg>
