<svg width="108" height="102" xmlns="http://www.w3.org/2000/svg"><path d="M77.62 101.408c1.692 0 3.002-.561 3.93-1.684.927-1.123 1.391-2.629 1.391-4.517V82.512h2.344c4.85 0 8.935-.871 12.256-2.613 3.32-1.741 5.835-4.272 7.544-7.592 1.709-3.32 2.563-7.373 2.563-12.159V22.746c0-4.785-.854-8.838-2.563-12.158-1.71-3.32-4.224-5.851-7.544-7.593C94.221 1.254 90.135.383 85.285.383h-62.89c-4.85 0-8.936.87-12.256 2.612-3.32 1.742-5.835 4.273-7.544 7.593C.885 13.908.03 17.96.03 22.746v37.402c0 4.786.855 8.838 2.564 12.159 1.709 3.32 4.223 5.85 7.544 7.592 3.32 1.742 7.405 2.613 12.255 2.613h31.348l16.846 14.99c1.497 1.302 2.742 2.279 3.735 2.93a5.884 5.884 0 0 0 3.296.976Zm-2.003-8.935L59.992 76.945c-.911-.944-1.79-1.562-2.637-1.855-.846-.293-1.953-.44-3.32-.44h-31.64c-4.916 0-8.562-1.228-10.938-3.686-2.376-2.458-3.565-6.08-3.565-10.864V22.746c0-4.752 1.189-8.358 3.565-10.815 2.376-2.458 6.022-3.687 10.937-3.687h62.891c4.948 0 8.602 1.229 10.962 3.687 2.36 2.457 3.54 6.063 3.54 10.815V60.1c0 4.785-1.18 8.406-3.54 10.864-2.36 2.458-6.014 3.686-10.962 3.686H79.28c-1.334 0-2.278.277-2.832.83-.553.554-.83 1.498-.83 2.833v14.16Z" fill="#000" fill-rule="nonzero"/></svg>
