<?xml version="1.0" encoding="utf-8"?>
<!DOCTYPE svg PUBLIC "-//W3C//DTD SVG 1.1//EN" "http://www.w3.org/Graphics/SVG/1.1/DTD/svg11.dtd">
<svg version="1.1" xmlns="http://www.w3.org/2000/svg" xmlns:xlink="http://www.w3.org/1999/xlink" x="0px" y="0px" viewBox="0 0 1000 1000" enable-background="new 0 0 1000 1000" xml:space="preserve">
<g><g transform="translate(0.000000,451.000000) scale(0.100000,-0.100000)"><path d="M4560.8,4190.3c-16.7-4.2-129.4-18.8-250.5-31.3c-1444.7-162.8-2816.3-964.5-3551.1-2077.2c-876.8-1321.5-878.9-2939.4-6.3-4258.9c256.8-388.3,659.7-812.1,1045.9-1098.1c112.7-83.5,206.7-154.5,210.8-156.6c12.5-6.3-62.6-327.8-112.7-482.3c-81.4-254.7-240.1-567.9-457.2-906c-108.6-169.1-202.5-321.5-208.8-336.1c-14.6-35.5,576.2-12.5,849.7,35.5c536.5,91.9,1098.1,377.9,1555.3,793.3l154.5,139.9l265.1-43.8c1031.3-169.1,2045.9-64.7,2995.8,313.2c1158.7,461.4,2102.3,1344.5,2538.6,2377.9c382,904,411.3,1845.5,85.6,2757.8c-499,1402.9-1835.1,2496.9-3482.3,2858c-379.9,83.5-613.8,106.5-1110.6,114.8C4813.5,4194.5,4577.5,4194.5,4560.8,4190.3z M5648.5,3764.4c365.4-50.1,626.3-106.5,916.5-200.4c830.9-267.2,1542.8-728.6,2062.6-1336.1c960.3-1121.1,1142-2572,482.3-3851.8C8684-2446.4,7894.9-3141.6,6940.8-3534.1c-620.1-254.7-1231.7-371.6-1931.1-373.7c-440.5,0-647.2,20.9-1083.5,106.4l-267.2,52.2L3466.9-3937c-254.7-250.5-492.7-421.7-795.4-569.9c-235.9-114.8-661.8-252.6-691-221.3c-8.3,6.3,20.9,71,60.5,144.1c164.9,296.5,331.9,795.4,359.1,1083.5c6.3,73.1,16.7,162.8,23,200.4c10.4,64.7,2.1,71-175.4,192.1c-283.9,190-478.1,352.8-726.5,613.8c-283.9,294.4-469.7,553.2-643,891.4C233.1-335.8,414.7,1106.8,1360.4,2217.5c519.8,609.6,1240.1,1077.3,2073.1,1346.6C4118.3,3785.3,4938.7,3858.4,5648.5,3764.4z"/></g></g>
</svg>
