<?xml version="1.0" encoding="UTF-8"?>
<svg width="108px" height="102px" viewBox="0 0 108 102" version="1.1" xmlns="http://www.w3.org/2000/svg" xmlns:xlink="http://www.w3.org/1999/xlink">
    <g id="Page-1" stroke="none" stroke-width="1" fill="none" fill-rule="evenodd">
        <g id="bubble.right" transform="translate(-1396.000000, -1043.000000)" fill="#000000" fill-rule="nonzero">
            <g id="Symbols" transform="translate(493.661500, 618.753900)">
                <g id="Regular-M" transform="translate(902.369700, 424.628900)">
                    <path d="M77.5879,101.0254 C79.2805667,101.0254 80.5907667,100.463867 81.5185,99.3408 C82.4462333,98.2178 82.9101,96.7122667 82.9101,94.8242 L82.9101,82.128919 L85.2539,82.128919 C90.1038333,82.128919 94.1891333,81.2581493 97.5098,79.51661 C100.8298,77.7750767 103.344467,75.24414 105.0538,71.9238 C106.762467,68.6035333 107.6168,64.5508 107.6168,59.7656 L107.6168,22.3633 C107.6168,17.5781667 106.762467,13.5254333 105.0538,10.2051 C103.344467,6.88476667 100.8298,4.35383333 97.5098,2.6123 C94.1891333,0.870766667 90.1038333,0 85.2539,0 L22.3633,0 C17.5130333,0 13.4277333,0.870766667 10.1074,2.6123 C6.78706667,4.35383333 4.2724,6.88476667 2.5634,10.2051 C0.854466667,13.5254333 0,17.5781667 0,22.3633 L0,59.7656 C0,64.5508 0.854466667,68.6035333 2.5634,71.9238 C4.2724,75.24414 6.78706667,77.7750767 10.1074,79.51661 C13.4277333,81.2581493 17.5130333,82.128919 22.3633,82.128919 L53.7109,82.128919 L70.5566,97.1192 C72.054,98.4212667 73.2991333,99.3978 74.292,100.0488 C75.2848,100.699867 76.3834333,101.0254 77.5879,101.0254 Z M75.5859,92.08986 L59.9609,76.56251 C59.0494333,75.6185033 58.1705333,75.0000133 57.3242,74.70704 C56.4778667,74.4140733 55.3711,74.26759 54.0039,74.26759 L22.3633,74.26759 C17.4479,74.26759 13.8020667,73.03876 11.4258,70.5811 C9.04946667,68.1233667 7.8613,64.5019333 7.8613,59.7168 L7.8613,22.3633 C7.8613,17.6107 9.04946667,14.0055667 11.4258,11.5479 C13.8020667,9.09016667 17.4479,7.8613 22.3633,7.8613 L85.2539,7.8613 C90.2018333,7.8613 93.8558,9.09016667 96.2158,11.5479 C98.5758,14.0055667 99.7558,17.6107 99.7558,22.3633 L99.7558,59.7168 C99.7558,64.5019333 98.5758,68.1233667 96.2158,70.5811 C93.8558,73.03876 90.2018333,74.26759 85.2539,74.26759 L79.248,74.26759 C77.9134,74.26759 76.9694,74.5442833 76.416,75.09767 C75.8626,75.6510567 75.5859,76.5950667 75.5859,77.9297 L75.5859,92.08986 Z" id="Shape"></path>
                </g>
            </g>
        </g>
    </g>
</svg>
