<svg width="122" height="85" xmlns="http://www.w3.org/2000/svg"><path d="M.471 65.256c0 1.14.228 2.075.684 2.807.456.733 1.172 1.327 2.148 1.783 2.735 1.334 4.973 2.905 6.714 4.712 1.742 1.806 3.442 4.37 5.103 7.69 1.041 1.823 2.555 2.734 4.54 2.734h82.374c1.985 0 3.483-.911 4.492-2.734 1.693-3.32 3.41-5.884 5.151-7.69 1.742-1.807 3.98-3.378 6.714-4.712.977-.456 1.693-1.05 2.149-1.783.455-.732.683-1.668.683-2.807v-45.02c0-1.139-.228-2.075-.683-2.807-.456-.733-1.172-1.327-2.149-1.782-2.734-1.368-4.972-2.955-6.714-4.761-1.741-1.807-3.458-4.354-5.151-7.642-1.01-1.855-2.507-2.783-4.492-2.783H19.661c-1.986 0-3.5.928-4.541 2.783-1.66 3.288-3.361 5.835-5.103 7.642-1.741 1.806-3.98 3.393-6.714 4.76-.976.456-1.692 1.05-2.148 1.783-.456.732-.684 1.668-.684 2.807v45.02Zm7.862-1.123V21.359c2.962-1.237 5.452-2.889 7.47-4.956 2.018-2.067 3.793-4.76 5.323-8.08h79.443c1.53 3.32 3.304 6.013 5.322 8.08 2.018 2.067 4.508 3.72 7.471 4.956v42.774c-2.963 1.237-5.453 2.889-7.471 4.956-2.018 2.067-3.792 4.744-5.322 8.032H21.126c-1.53-3.288-3.305-5.965-5.323-8.032-2.018-2.067-4.508-3.72-7.47-4.956Zm13.427.195c0 1.302.399 2.344 1.197 3.125.797.781 1.83 1.172 3.1 1.172h69.531c1.302 0 2.344-.39 3.125-1.172.781-.781 1.172-1.823 1.172-3.125V21.164c0-1.27-.39-2.303-1.172-3.1-.781-.798-1.823-1.197-3.125-1.197h-69.53c-1.27 0-2.304.399-3.101 1.197-.798.797-1.197 1.83-1.197 3.1v43.164Zm5.908-2.685v-8.301h6.446v9.375h-5.322c-.75 0-1.124-.358-1.124-1.074Zm0-14.21v-9.326h6.446v9.327h-6.446Zm0-15.234v-8.35c0-.716.375-1.074 1.124-1.074h5.322V32.2h-6.446Zm59.913 0v-9.424h5.322c.716 0 1.074.358 1.074 1.075v8.35h-6.396Zm0 15.235v-9.327h6.396v9.327h-6.396Zm0 15.283v-9.375h6.396v8.3c0 .717-.358 1.075-1.074 1.075h-5.322Zm-47.559 0V22.775h41.65v39.942h-41.65Z" fill="#000" fill-rule="nonzero"/></svg>
