<?xml version="1.0" encoding="UTF-8"?>
<svg width="98px" height="91px" viewBox="0 0 98 91" version="1.1" xmlns="http://www.w3.org/2000/svg" xmlns:xlink="http://www.w3.org/1999/xlink">
    <title>Regular-M</title>
    <g id="Page-1" stroke="none" stroke-width="1" fill="none" fill-rule="evenodd">
        <g id="heart" transform="translate(-1401.000000, -1047.000000)" fill="#000000" fill-rule="nonzero">
            <g id="Symbols" transform="translate(500.936700, 622.855500)">
                <g id="Regular-M" transform="translate(900.423800, 424.580000)">
                    <path d="M1.77635684e-15,29.4922 C1.77635684e-15,36.4258 1.83106667,43.2861667 5.4932,50.0733 C9.15533333,56.8604333 14.3555333,63.4685033 21.0938,69.89751 C27.8320667,76.3265447 35.7910333,82.470748 44.9707,88.33012 C45.4915667,88.65564 46.0856667,88.9567333 46.753,89.2334 C47.4203333,89.5101333 47.9981333,89.6485 48.4864,89.6485 C49.0072,89.6485 49.6012667,89.5101333 50.2686,89.2334 C50.9359333,88.9567333 51.53,88.65564 52.0508,88.33012 C61.2305333,82.470748 69.1814,76.3265447 75.9034,69.89751 C82.6254,63.4685033 87.8174333,56.8604333 91.4795,50.0733 C95.1415,43.2861667 96.9725,36.4258 96.9725,29.4922 C96.9725,25.1628 96.2808333,21.1996 94.8975,17.6026 C93.5141667,14.0056 91.5771667,10.8887333 89.0865,8.252 C86.5965667,5.61526667 83.6670333,3.58076667 80.2979,2.1485 C76.9287667,0.716166667 73.2585333,0 69.2872,0 C64.7624,0 60.7178,0.992866667 57.1534,2.9786 C53.5889333,4.96426667 50.6999333,7.60096667 48.4864,10.8887 C46.3054,7.60096667 43.4245333,4.96426667 39.8438,2.9786 C36.2630667,0.992866667 32.2103333,0 27.6856,0 C23.7468,0 20.0928333,0.716166667 16.7237,2.1485 C13.3545667,3.58076667 10.4167333,5.61526667 7.9102,8.252 C5.40366667,10.8887333 3.45866667,14.0056 2.0752,17.6026 C0.691733333,21.1996 1.77635684e-15,25.1628 1.77635684e-15,29.4922 Z M7.8614,29.4922 C7.8614,25.1628 8.7159,21.3786333 10.4249,18.1397 C12.1338333,14.9007667 14.4775667,12.3779667 17.4561,10.5713 C20.4346333,8.7647 23.8119,7.8614 27.5879,7.8614 C30.6478333,7.8614 33.3008333,8.40663333 35.5469,9.4971 C37.7930333,10.5876333 39.6973333,11.9467 41.2598,13.5743 C42.8223333,15.2019 44.1244333,16.8295 45.1661,18.4571 C45.8497,19.4336333 46.4275,20.0928 46.8995,20.4346 C47.3715,20.7764 47.9004667,20.9473 48.4864,20.9473 C49.0723333,20.9473 49.5931667,20.7682667 50.0489,20.4102 C50.5046333,20.0521333 51.0905667,19.4011 51.8067,18.4571 C52.9134333,16.8620333 54.2562,15.2425667 55.835,13.5987 C57.4138,11.9548333 59.3018333,10.5876333 61.4991,9.4971 C63.6963667,8.40663333 66.3249333,7.8614 69.3848,7.8614 C73.1608667,7.8614 76.5381333,8.7647 79.5166,10.5713 C82.4951333,12.3779667 84.8389,14.9007667 86.5479,18.1397 C88.2569667,21.3786333 89.1115,25.1628 89.1115,29.4922 C89.1115,34.0169333 88.0209667,38.5986667 85.8399,43.2374 C83.6589,47.8760667 80.7048,52.4252 76.9776,56.8848 C73.2504,61.3444667 69.0186333,65.6006567 64.2823,69.65337 C59.5459667,73.7061033 54.6224667,77.4251767 49.5118,80.81059 C48.9584,81.2012167 48.6166,81.39653 48.4864,81.39653 C48.3562,81.39653 48.0306667,81.2012167 47.5098,80.81059 C42.3991333,77.4251767 37.4756333,73.7061033 32.7393,69.65337 C28.0029667,65.6006567 23.7630667,61.3444667 20.0196,56.8848 C16.2760667,52.4252 13.3138333,47.8760667 11.1329,43.2374 C8.9519,38.5986667 7.8614,34.0169333 7.8614,29.4922 Z" id="Shape"></path>
                </g>
            </g>
        </g>
    </g>
</svg>
