<svg xmlns="http://www.w3.org/2000/svg" viewBox="0 0 297 297" style="enable-background:new 0 0 297 297" xml:space="preserve"><path d="M148.5 273.96c-1.572 0-3.145-.36-4.589-1.083-1.455-.728-36.028-18.149-71.1-47.375-20.824-17.353-37.475-35.289-49.488-53.31C7.847 148.979 0 125.504 0 102.421 0 58.65 35.61 23.04 79.381 23.04c29.604 0 55.474 16.286 69.119 40.372 13.645-24.086 39.516-40.372 69.119-40.372 43.77 0 79.381 35.61 79.381 79.381 0 23.083-7.847 46.558-23.323 69.771-12.014 18.021-28.664 35.957-49.488 53.311-35.071 29.226-69.645 46.647-71.1 47.374a10.246 10.246 0 0 1-4.589 1.083zM79.381 43.564c-32.453 0-58.856 26.403-58.856 58.856 0 75.731 104.584 136.931 127.972 149.665 23.379-12.75 127.979-74.044 127.979-149.665 0-32.453-26.403-58.856-58.856-58.856-32.454 0-58.856 26.403-58.856 58.856 0 5.667-4.596 10.263-10.263 10.263s-10.263-4.596-10.263-10.263c-.001-32.452-26.403-58.856-58.857-58.856z"/></svg>
