<svg width="98" height="91" xmlns="http://www.w3.org/2000/svg"><path d="M.36 29.928c0 6.933 1.832 13.794 5.494 20.58 3.662 6.788 8.862 13.396 15.6 19.825 6.739 6.429 14.698 12.573 23.877 18.433.521.325 1.115.626 1.782.903.668.277 1.246.415 1.734.415.52 0 1.115-.138 1.782-.415a12.118 12.118 0 0 0 1.782-.903c9.18-5.86 17.13-12.004 23.853-18.433 6.722-6.429 11.914-13.037 15.576-19.824 3.662-6.787 5.493-13.648 5.493-20.581 0-4.33-.692-8.293-2.075-11.89-1.383-3.597-3.32-6.714-5.811-9.35a25.879 25.879 0 0 0-8.789-6.104C77.29 1.152 73.62.435 69.648.435c-4.525 0-8.57.993-12.134 2.98-3.565 1.985-6.454 4.621-8.667 7.91-2.181-3.289-5.062-5.925-8.643-7.91-3.58-1.987-7.633-2.98-12.158-2.98-3.939 0-7.593.717-10.962 2.149a26.14 26.14 0 0 0-8.813 6.103c-2.507 2.637-4.452 5.754-5.835 9.351C1.052 21.635.36 25.598.36 29.928Zm7.862 0c0-4.33.854-8.114 2.563-11.353 1.71-3.239 4.053-5.762 7.032-7.568 2.978-1.807 6.355-2.71 10.131-2.71 3.06 0 5.713.545 7.96 1.636 2.246 1.09 4.15 2.45 5.712 4.077 1.563 1.627 2.865 3.255 3.907 4.883.683.976 1.261 1.635 1.733 1.977a2.64 2.64 0 0 0 1.587.513 2.46 2.46 0 0 0 1.562-.537c.456-.358 1.042-1.01 1.758-1.953 1.107-1.595 2.45-3.215 4.029-4.859 1.578-1.644 3.466-3.01 5.664-4.101 2.197-1.09 4.825-1.636 7.885-1.636 3.776 0 7.154.903 10.132 2.71 2.979 1.806 5.322 4.33 7.031 7.568 1.71 3.24 2.564 7.023 2.564 11.353 0 4.524-1.09 9.106-3.272 13.745-2.18 4.639-5.135 9.188-8.862 13.647-3.727 4.46-7.959 8.716-12.695 12.769a150.8 150.8 0 0 1-14.77 11.157c-.554.39-.896.586-1.026.586s-.456-.195-.977-.586A150.8 150.8 0 0 1 33.1 70.09c-4.737-4.053-8.976-8.309-12.72-12.769-3.743-4.46-6.706-9.008-8.887-13.647-2.18-4.639-3.271-9.22-3.271-13.745Z"/></svg>
