<svg width="98" height="91" xmlns="http://www.w3.org/2000/svg"><path d="M48.847 90.084c.52 0 1.115-.138 1.782-.415a12.118 12.118 0 0 0 1.782-.903c9.18-5.86 17.13-12.004 23.853-18.433 6.722-6.429 11.914-13.037 15.576-19.824 3.662-6.787 5.493-13.648 5.493-20.581 0-4.33-.692-8.293-2.075-11.89-1.383-3.597-3.304-6.714-5.762-9.35a25.621 25.621 0 0 0-8.642-6.104C77.55 1.152 73.977.435 70.136.435c-4.753 0-8.936 1.213-12.549 3.638-3.613 2.425-6.527 5.656-8.74 9.693-2.181-4.004-5.078-7.227-8.691-9.668C36.542 1.656 32.343.435 27.558.435c-3.841 0-7.406.717-10.693 2.149a25.948 25.948 0 0 0-8.643 6.103c-2.474 2.637-4.403 5.754-5.786 9.351C1.052 21.635.36 25.598.36 29.928c0 6.933 1.83 13.794 5.493 20.58 3.662 6.788 8.862 13.396 15.6 19.825 6.739 6.429 14.698 12.573 23.877 18.433.521.325 1.115.626 1.782.903.668.277 1.246.415 1.734.415Z" fill="#000" fill-rule="nonzero"/></svg>
