<?xml version="1.0" encoding="UTF-8"?>
<svg width="98px" height="91px" viewBox="0 0 98 91" version="1.1" xmlns="http://www.w3.org/2000/svg" xmlns:xlink="http://www.w3.org/1999/xlink">
    <g id="Page-1" stroke="none" stroke-width="1" fill="none" fill-rule="evenodd">
        <g id="heart.fill" transform="translate(-1401.000000, -1047.000000)" fill="#000000" fill-rule="nonzero">
            <g id="Symbols" transform="translate(500.936700, 622.855500)">
                <g id="Regular-M" transform="translate(900.423800, 424.580000)">
                    <path d="M48.4864,89.6485 C49.0072,89.6485 49.6012667,89.5101333 50.2686,89.2334 C50.9359333,88.9567333 51.53,88.65564 52.0508,88.33012 C61.2305333,82.470748 69.1814,76.3265447 75.9034,69.89751 C82.6254,63.4685033 87.8174333,56.8604333 91.4795,50.0733 C95.1415,43.2861667 96.9725,36.4258 96.9725,29.4922 C96.9725,25.1628 96.2808333,21.1996 94.8975,17.6026 C93.5141667,14.0056 91.5935,10.8887333 89.1355,8.252 C86.6780333,5.61526667 83.7972667,3.58076667 80.4932,2.1485 C77.1892,0.716166667 73.6166,0 69.7754,0 C65.0228,0 60.8398667,1.21256667 57.2266,3.6377 C53.6133333,6.06283333 50.6999333,9.29363333 48.4864,13.3301 C46.3054,9.32623333 43.4082667,6.1036 39.795,3.6622 C36.1816667,1.22073333 31.9824333,0 27.1973,0 C23.3561667,0 19.7917333,0.716166667 16.504,2.1485 C13.2162,3.58076667 10.3353333,5.61526667 7.8614,8.252 C5.3874,10.8887333 3.45866667,14.0056 2.0752,17.6026 C0.691733333,21.1996 1.77635684e-15,25.1628 1.77635684e-15,29.4922 C1.77635684e-15,36.4258 1.83106667,43.2861667 5.4932,50.0733 C9.15533333,56.8604333 14.3555333,63.4685033 21.0938,69.89751 C27.8320667,76.3265447 35.7910333,82.470748 44.9707,88.33012 C45.4915667,88.65564 46.0856667,88.9567333 46.753,89.2334 C47.4203333,89.5101333 47.9981333,89.6485 48.4864,89.6485 Z" id="Path"></path>
                </g>
            </g>
        </g>
    </g>
</svg>
