<svg xmlns="http://www.w3.org/2000/svg" width="393.977" height="363.422"><path style="fill:#e30a17;fill-opacity:1;fill-rule:nonzero;stroke:none" transform="rotate(45 475.59 -331.616)" d="M540.953 128.811h228.571v228.571H540.953z"/><path style="fill:#e30a17;fill-opacity:1;fill-rule:nonzero;stroke:none" d="M411.429 400.934c0 64.696-52.447 117.142-117.143 117.142-64.697 0-117.143-52.446-117.143-117.142 0-64.697 52.446-117.143 117.143-117.143 64.696 0 117.143 52.446 117.143 117.143z" transform="translate(-177.143 -282.29)"/><path transform="translate(-17.452 -283.79)" d="M411.429 400.934c0 64.696-52.447 117.142-117.143 117.142-64.697 0-117.143-52.446-117.143-117.142 0-64.697 52.446-117.143 117.143-117.143 64.696 0 117.143 52.446 117.143 117.143z" style="fill:#e30a17;fill-opacity:1;fill-rule:nonzero;stroke:none"/></svg>
