<?xml version="1.0" encoding="UTF-8"?>
<svg width="80px" height="80px" viewBox="0 0 80 80" version="1.1" xmlns="http://www.w3.org/2000/svg" xmlns:xlink="http://www.w3.org/1999/xlink">
    <g id="Page-1" stroke="none" stroke-width="1" fill="none" fill-rule="evenodd">
        <g id="icon" transform="translate(-1410.000000, -621.000000)" fill="#000000" fill-rule="nonzero">
            <g id="Symbols" transform="translate(498.882300, 618.802700)">
                <g id="Regular-S" transform="translate(911.533640, 2.539100)">
                    <path d="M39.40426,78.80859 C44.8079267,78.80859 49.88606,77.7832 54.63866,75.73242 C59.39126,73.68164 63.58236,70.8333333 67.21196,67.1875 C70.8414933,63.5416333 73.6897933,59.3424 75.75686,54.5898 C77.8239267,49.8372 78.85746,44.7753667 78.85746,39.4043 C78.85746,34.0332333 77.8239267,28.9713667 75.75686,24.2187 C73.6897933,19.4661 70.8333267,15.2669 67.18746,11.6211 C63.54166,7.97523333 59.34246,5.12693333 54.58986,3.0762 C49.83726,1.0254 44.7591267,0 39.35546,0 C33.9843933,0 28.92256,1.0254 24.16996,3.0762 C19.41736,5.12693333 15.2343933,7.97523333 11.62106,11.6211 C8.00779333,15.2669 5.16763333,19.4661 3.10058,24.2187 C1.03352667,28.9713667 -8.8817842e-16,34.0332333 -8.8817842e-16,39.4043 C-8.8817842e-16,44.7753667 1.03352667,49.8372 3.10058,54.5898 C5.16763333,59.3424 8.01592667,63.5416333 11.64546,67.1875 C15.27506,70.8333333 19.46616,73.68164 24.21876,75.73242 C28.97136,77.7832 34.0331933,78.80859 39.40426,78.80859 Z M39.40426,71.38672 C34.9771933,71.38672 30.83496,70.56478 26.97756,68.9209 C23.1200933,67.27702 19.73466,64.99022 16.82126,62.0605 C13.90786,59.1308333 11.6292267,55.7291667 9.98536,51.8555 C8.34149333,47.9817667 7.51956,43.8313667 7.51956,39.4043 C7.51956,34.9772333 8.33336,30.8268333 9.96096,26.9531 C11.58856,23.0794333 13.85906,19.6777333 16.77246,16.748 C19.68586,13.8183333 23.07126,11.5315667 26.92866,9.8877 C30.7861267,8.24383333 34.9283933,7.4219 39.35546,7.4219 C43.8151267,7.4219 47.97366,8.24383333 51.83106,9.8877 C55.68846,11.5315667 59.0820267,13.8183333 62.01176,16.748 C64.9414267,19.6777333 67.2363267,23.0794333 68.89646,26.9531 C70.55666,30.8268333 71.38676,34.9772333 71.38676,39.4043 C71.38676,43.8313667 70.5647933,47.9817667 68.92086,51.8555 C67.2769933,55.7291667 64.99836,59.1308333 62.08496,62.0605 C59.17156,64.99022 55.7779933,67.27702 51.90426,68.9209 C48.0305933,70.56478 43.8639267,71.38672 39.40426,71.38672 Z M18.55466,43.0176 L33.83786,43.0176 C34.7493267,43.0176 35.20506,43.4896 35.20506,44.4336 L35.20506,59.5215 C35.20506,60.7910333 35.5549933,61.6862 36.25486,62.207 C36.9547267,62.7278667 37.72786,62.8825 38.57426,62.6709 C39.4205933,62.4593 40.05536,61.8815 40.47856,60.9375 L57.12886,25.3906 C57.6497267,24.3164 57.73926,23.3398333 57.39746,22.4609 C57.05566,21.5820333 56.43716,20.9635667 55.54196,20.6055 C54.6468267,20.2474333 53.64586,20.3288 52.53906,20.8496 L17.08986,37.7441 C16.1783933,38.1673 15.61686,38.8020667 15.40526,39.6484 C15.19366,40.4948 15.3482933,41.2679333 15.86916,41.9678 C16.38996,42.6676667 17.2851267,43.0176 18.55466,43.0176 Z" id="Shape"></path>
                </g>
            </g>
        </g>
    </g>
</svg>
