<svg width="80" height="80" xmlns="http://www.w3.org/2000/svg"><path d="M39.82 79.15c5.404 0 10.482-1.025 15.235-3.076a39.861 39.861 0 0 0 12.573-8.545 40.707 40.707 0 0 0 8.545-12.597c2.067-4.753 3.1-9.815 3.1-15.186s-1.033-10.433-3.1-15.186a40.497 40.497 0 0 0-8.57-12.597 40.149 40.149 0 0 0-12.597-8.545C50.253 1.368 45.176.342 39.77.342c-5.37 0-10.433 1.025-15.185 3.076a39.572 39.572 0 0 0-12.549 8.545 40.917 40.917 0 0 0-8.52 12.597C1.449 29.313.416 34.375.416 39.746s1.033 10.433 3.1 15.186a40.706 40.706 0 0 0 8.545 12.597 39.861 39.861 0 0 0 12.574 8.545c4.752 2.051 9.814 3.076 15.185 3.076Zm0-7.421c-4.427 0-8.57-.822-12.427-2.466-3.857-1.644-7.242-3.931-10.156-6.86-2.913-2.93-5.192-6.332-6.836-10.206-1.644-3.873-2.466-8.024-2.466-12.45 0-4.428.814-8.578 2.442-12.452 1.627-3.874 3.898-7.275 6.811-10.205 2.914-2.93 6.3-5.217 10.157-6.86 3.857-1.644 8-2.466 12.426-2.466 4.46 0 8.619.822 12.476 2.465a31.998 31.998 0 0 1 10.18 6.86c2.93 2.93 5.225 6.332 6.885 10.206 1.66 3.874 2.49 8.024 2.49 12.451 0 4.427-.821 8.578-2.465 12.451-1.644 3.874-3.923 7.276-6.836 10.205-2.914 2.93-6.307 5.217-10.18 6.86-3.874 1.645-8.041 2.467-12.5 2.467Zm-20.85-28.37h15.284c.911 0 1.367.472 1.367 1.416v15.088c0 1.27.35 2.165 1.05 2.686.7.52 1.473.675 2.32.464.846-.212 1.48-.79 1.903-1.734l16.65-35.547c.522-1.074.611-2.05.27-2.93-.342-.878-.96-1.497-1.856-1.855-.895-.358-1.896-.276-3.003.244l-35.45 16.895c-.91.423-1.472 1.058-1.684 1.904-.211.847-.057 1.62.464 2.32.52.7 1.416 1.05 2.686 1.05Z" fill="#000" fill-rule="nonzero"/></svg>
