<?xml version="1.0" encoding="utf-8"?>
<!DOCTYPE svg PUBLIC "-//W3C//DTD SVG 1.1//EN" "http://www.w3.org/Graphics/SVG/1.1/DTD/svg11.dtd">
<svg version="1.1" xmlns="http://www.w3.org/2000/svg" xmlns:xlink="http://www.w3.org/1999/xlink" x="0px" y="0px" viewBox="0 0 1000 1000" enable-background="new 0 0 1000 1000" xml:space="preserve">
<g><path d="M739.1,109C675.3,45.2,590.3,10,500,10c-90.3,0-175.3,35.2-239.1,99c-63.9,63.9-99.1,148.8-99.1,239.1c0,46.2,9.2,91,27.3,133.2c17.4,47.3,79.9,186.9,286.7,475L500,990l24.2-33.7c206.9-288.1,269.3-427.6,286.7-475c18.1-42.2,27.3-87,27.3-133.2C838.2,257.8,803,172.9,739.1,109z M500,428.5c-59.3,0-107.3-48.1-107.3-107.3c0-59.3,48.1-107.3,107.3-107.3c59.3,0,107.3,48.1,107.3,107.3C607.3,380.5,559.3,428.5,500,428.5z"/></g>
</svg>
