<svg width="86" height="115" xmlns="http://www.w3.org/2000/svg"><path d="M68.939 17.512h5.566c2.149 0 3.223 1.22 3.223 3.662v74.414c0 1.465-.187 2.555-.562 3.271-.374.717-1.261 1.368-2.66 1.954-3.223 1.4-6.829 2.628-10.816 3.686a98.773 98.773 0 0 1-12.5 2.441c-4.346.57-8.667.855-12.964.855-3.776 0-7.487-.13-11.133-.39a110.7 110.7 0 0 1-11.084-1.368v.635c5.176.065 10.23-.212 15.161-.83 4.932-.619 9.57-1.506 13.916-2.661 4.346-1.156 8.252-2.499 11.719-4.029 3.467-1.53 6.323-3.157 8.57-4.882 1.757-1.303 2.945-2.54 3.564-3.711.618-1.172.928-2.832.928-4.98V7.696c0-2.409-.586-4.207-1.758-5.395-1.172-1.188-2.832-1.783-4.98-1.783-.75 0-1.563.09-2.442.27-.879.178-1.84.43-2.881.756-7.39 2.409-14.665 4.33-21.826 5.762-7.162 1.432-15.055 2.148-23.682 2.148H8.392c-2.637 0-4.68.708-6.128 2.124C.815 12.995.091 14.908.091 17.316v83.79c0 1.887.293 3.45.88 4.687.585 1.237 1.773 2.295 3.563 3.174 4.2 1.823 9.262 3.28 15.186 4.37 5.925 1.09 12.093 1.636 18.506 1.636 3.418 0 6.91-.139 10.474-.415 3.564-.277 7.088-.708 10.57-1.294a88.442 88.442 0 0 0 10.084-2.295c3.239-.944 6.225-2.084 8.96-3.418 2.93-1.4 4.875-2.897 5.835-4.492.96-1.595 1.44-3.907 1.44-6.934V21.174c0-7.682-3.71-11.524-11.133-11.524H68.94v7.862ZM7.952 97.443V19.416c0-1.465.668-2.197 2.002-2.197h2.686c8.529 0 16.732-.749 24.61-2.246 7.877-1.498 15.234-3.32 22.07-5.47.813-.26 1.465-.276 1.953-.048.488.228.732.716.732 1.465v72.95c0 1.334-.163 2.351-.488 3.05-.326.7-1.107 1.458-2.344 2.271-2.539 1.693-5.469 3.207-8.789 4.541-3.32 1.335-7.047 2.45-11.182 3.345-4.134.895-8.658 1.53-13.574 1.904-4.915.375-10.237.448-15.967.22-1.139-.065-1.709-.65-1.709-1.758Zm9.961-67.334v16.016c0 .749.391 1.123 1.172 1.123 3.809 0 7.601-.22 11.377-.66a93.643 93.643 0 0 0 10.889-1.903c3.483-.83 6.69-1.831 9.62-3.003.455-.228.683-.586.683-1.075V23.908c0-.553-.196-.911-.586-1.074-.39-.163-.716-.18-.977-.049a105.013 105.013 0 0 1-15.161 4.248c-5.062 1.01-10.343 1.612-15.845 1.807-.781.065-1.172.488-1.172 1.27Z" fill="#000" fill-rule="nonzero"/></svg>
