<svg width="91" height="91" xmlns="http://www.w3.org/2000/svg"><path d="M16.233 90.766h59.229c5.11 0 8.943-1.262 11.499-3.785 2.555-2.522 3.833-6.307 3.833-11.352v-59.62c0-5.045-1.278-8.829-3.833-11.352C84.405 2.134 80.572.873 75.46.873H16.234c-5.11 0-8.943 1.261-11.499 3.784C2.18 7.18.901 10.964.901 16.01v59.619c0 5.045 1.278 8.83 3.833 11.352 2.556 2.523 6.389 3.785 11.5 3.785Zm.098-7.862c-2.441 0-4.313-.643-5.615-1.928-1.302-1.286-1.953-3.199-1.953-5.738V16.4c0-2.539.65-4.451 1.953-5.737 1.302-1.286 3.174-1.929 5.615-1.929h59.033c2.409 0 4.273.643 5.59 1.93 1.32 1.285 1.978 3.197 1.978 5.736v58.838c0 2.54-.659 4.452-1.977 5.738-1.318 1.285-3.182 1.928-5.59 1.928H16.33Zm6.934-37.158c0 1.172.39 2.132 1.171 2.881.782.749 1.79 1.123 3.028 1.123h14.355v14.404c0 1.237.374 2.238 1.123 3.003.749.765 1.71 1.148 2.881 1.148 1.237 0 2.238-.383 3.003-1.148.765-.765 1.147-1.766 1.147-3.003V49.75h14.405c1.237 0 2.238-.374 3.003-1.123.765-.749 1.147-1.709 1.147-2.88 0-1.238-.382-2.239-1.147-3.004-.765-.765-1.766-1.147-3.003-1.147H49.973V27.24c0-1.27-.382-2.287-1.147-3.051-.765-.765-1.766-1.148-3.003-1.148-1.172 0-2.132.39-2.88 1.172-.75.781-1.124 1.79-1.124 3.027v14.356H27.464c-1.27 0-2.287.382-3.052 1.147-.765.765-1.147 1.766-1.147 3.003Z" fill="#fff" fill-rule="nonzero"/></svg>
