<?xml version="1.0" encoding="UTF-8"?>
<svg width="91px" height="91px" viewBox="0 0 91 91" version="1.1" xmlns="http://www.w3.org/2000/svg" xmlns:xlink="http://www.w3.org/1999/xlink">
    <g id="Page-1" stroke="none" stroke-width="1" fill="none" fill-rule="evenodd">
        <g id="plus.square" transform="translate(-1404.000000, -1045.000000)" fill="#ffffff" fill-rule="nonzero">
            <g id="Symbols" transform="translate(504.811500, 622.660200)">
                <g id="Regular-M" transform="translate(900.089700, 423.212800)">
                    <path d="M15.332,89.89262 L74.5605,89.89262 C79.6711667,89.89262 83.5041667,88.63123 86.0595,86.10845 C88.6150333,83.5856633 89.8928,79.8014833 89.8928,74.75591 L89.8928,15.1368 C89.8928,10.0912 88.6150333,6.307 86.0595,3.7842 C83.5041667,1.2614 79.6711667,0 74.5605,0 L15.332,0 C10.2213333,0 6.38833333,1.2614 3.833,3.7842 C1.27766667,6.307 0,10.0912 0,15.1368 L0,74.75591 C0,79.8014833 1.27766667,83.5856633 3.833,86.10845 C6.38833333,88.63123 10.2213333,89.89262 15.332,89.89262 Z M15.4297,82.0313 C12.9883,82.0313 11.1165333,81.3883953 9.8144,80.1025859 C8.51233333,78.816782 7.8613,76.9043467 7.8613,74.36528 L7.8613,15.5274 C7.8613,12.9883333 8.51233333,11.0759 9.8144,9.7901 C11.1165333,8.5043 12.9883,7.8614 15.4297,7.8614 L74.4629,7.8614 C76.8717,7.8614 78.7353,8.5043 80.0537,9.7901 C81.3720333,11.0759 82.0312,12.9883333 82.0312,15.5274 L82.0312,74.36528 C82.0312,76.9043467 81.3720333,78.816782 80.0537,80.1025859 C78.7353,81.3883953 76.8717,82.0313 74.4629,82.0313 L15.4297,82.0313 Z M22.3633,44.8731 C22.3633,46.0449667 22.7539,47.0052667 23.5351,47.754 C24.3163667,48.5026667 25.3255,48.877 26.5625,48.877 L40.9179,48.877 L40.9179,63.2813 C40.9179,64.5183 41.2922667,65.5192667 42.041,66.2842 C42.7896667,67.0492 43.7499333,67.4317 44.9218,67.4317 C46.1588,67.4317 47.1598,67.0492 47.9248,66.2842 C48.6897333,65.5192667 49.0722,64.5183 49.0722,63.2813 L49.0722,48.877 L63.4765,48.877 C64.7135,48.877 65.7145,48.5026667 66.4795,47.754 C67.2444333,47.0052667 67.6269,46.0449667 67.6269,44.8731 C67.6269,43.6361 67.2444333,42.6351333 66.4795,41.8702 C65.7145,41.1052 64.7135,40.7227 63.4765,40.7227 L49.0722,40.7227 L49.0722,26.3672 C49.0722,25.0976667 48.6897333,24.0804333 47.9248,23.3155 C47.1598,22.5505 46.1588,22.168 44.9218,22.168 C43.7499333,22.168 42.7896667,22.5586333 42.041,23.3399 C41.2922667,24.1211667 40.9179,25.1302667 40.9179,26.3672 L40.9179,40.7227 L26.5625,40.7227 C25.2929667,40.7227 24.2757,41.1052 23.5107,41.8702 C22.7457667,42.6351333 22.3633,43.6361 22.3633,44.8731 Z" id="Shape"></path>
                </g>
            </g>
        </g>
    </g>
</svg>
