<svg width="94" height="91" xmlns="http://www.w3.org/2000/svg"><path d="M11.635 65.986c0-1.432-.513-2.669-1.539-3.71-1.025-1.042-2.286-1.563-3.784-1.563-1.432 0-2.66.52-3.686 1.562-1.026 1.042-1.538 2.279-1.538 3.711 0 1.465.512 2.702 1.538 3.711 1.025 1.01 2.254 1.514 3.686 1.514 1.498 0 2.76-.505 3.784-1.514 1.026-1.009 1.539-2.246 1.539-3.71Zm0 19.14c0-1.464-.513-2.717-1.539-3.759-1.025-1.041-2.286-1.562-3.784-1.562-1.432 0-2.66.52-3.686 1.562-1.026 1.042-1.538 2.295-1.538 3.76 0 1.465.512 2.71 1.538 3.735C3.65 89.888 4.88 90.4 6.312 90.4c1.498 0 2.76-.512 3.784-1.538 1.026-1.025 1.539-2.27 1.539-3.735Zm80.175-19.14c0-1.074-.399-1.97-1.196-2.685-.797-.716-1.782-1.074-2.954-1.074H21.937c-1.204 0-2.197.358-2.978 1.074-.781.716-1.172 1.611-1.172 2.685 0 1.075.39 1.978 1.172 2.71.781.733 1.774 1.099 2.978 1.099H87.66c1.172 0 2.157-.366 2.954-1.099.797-.732 1.196-1.635 1.196-2.71Zm0 19.14c0-1.073-.399-1.968-1.196-2.685-.797-.716-1.782-1.074-2.954-1.074H21.937c-1.204 0-2.197.358-2.978 1.074-.781.717-1.172 1.612-1.172 2.686 0 1.074.39 1.977 1.172 2.71.781.732 1.774 1.099 2.978 1.099H87.66c1.172 0 2.157-.367 2.954-1.1.797-.732 1.196-1.635 1.196-2.71ZM13.637.313c-4.98 0-8.48 1.115-10.499 3.345C1.12 5.887.111 9.378.111 14.131v22.705c0 4.752 1.01 8.244 3.027 10.474 2.019 2.23 5.518 3.344 10.499 3.344h66.406c4.98 0 8.48-1.115 10.498-3.344 2.018-2.23 3.027-5.722 3.027-10.474V14.13c0-4.753-1.009-8.244-3.027-10.474C88.523 1.427 85.023.312 80.043.312H13.637ZM7.972 37.08V13.887c0-2.149.416-3.727 1.246-4.737.83-1.009 2.319-1.513 4.467-1.513h66.309c2.148 0 3.638.504 4.468 1.513.83 1.01 1.245 2.588 1.245 4.737V37.08c0 2.181-.415 3.768-1.245 4.76-.83.994-2.32 1.49-4.468 1.49H13.685c-2.148 0-3.637-.496-4.467-1.49-.83-.992-1.246-2.579-1.246-4.76Z" fill="#000" fill-rule="nonzero"/></svg>
