<svg width="188" height="92" xmlns="http://www.w3.org/2000/svg"><path d="M63.128 91.791h61.377c7.975 0 11.963-2.604 11.963-7.812 0-3.19-.977-6.592-2.93-10.206-1.953-3.613-4.777-7.023-8.472-10.23-3.695-3.205-8.17-5.818-13.428-7.836-5.257-2.018-11.189-3.027-17.797-3.027-6.64 0-12.59 1.009-17.847 3.027-5.257 2.018-9.733 4.63-13.428 7.837-3.695 3.206-6.518 6.616-8.471 10.23-1.954 3.613-2.93 7.014-2.93 10.205 0 5.208 3.987 7.812 11.963 7.812Zm-2.295-7.373c-.651 0-1.115-.098-1.392-.293-.277-.195-.415-.553-.415-1.074 0-1.986.757-4.289 2.27-6.91 1.514-2.62 3.752-5.15 6.715-7.592 2.962-2.442 6.608-4.468 10.937-6.08 4.33-1.61 9.294-2.416 14.893-2.416s10.555.805 14.868 2.417c4.313 1.611 7.95 3.637 10.913 6.079 2.962 2.441 5.2 4.972 6.714 7.593 1.513 2.62 2.27 4.923 2.27 6.909 0 .52-.138.879-.415 1.074-.277.195-.724.293-1.343.293H60.833ZM93.84 45.941c3.873 0 7.405-1.041 10.595-3.125 3.19-2.083 5.737-4.858 7.642-8.325 1.904-3.467 2.856-7.3 2.856-11.499 0-4.166-.944-7.934-2.832-11.303-1.888-3.37-4.427-6.047-7.617-8.033-3.19-1.985-6.738-2.978-10.644-2.978-3.874 0-7.406 1.009-10.596 3.027-3.19 2.018-5.737 4.72-7.642 8.106-1.904 3.385-2.856 7.145-2.856 11.279 0 4.166.952 7.983 2.856 11.45 1.905 3.467 4.452 6.234 7.642 8.3 3.19 2.068 6.722 3.101 10.596 3.101Zm0-7.373c-2.377 0-4.566-.691-6.568-2.075-2.002-1.383-3.613-3.247-4.834-5.59-1.22-2.344-1.83-4.949-1.83-7.813 0-2.832.601-5.38 1.806-7.642 1.204-2.262 2.807-4.06 4.81-5.395A11.677 11.677 0 0 1 93.84 8.05c2.441 0 4.663.65 6.665 1.953 2.002 1.302 3.597 3.084 4.785 5.347 1.188 2.262 1.782 4.81 1.782 7.641 0 2.865-.602 5.477-1.807 7.837-1.204 2.36-2.807 4.24-4.809 5.64-2.002 1.4-4.207 2.1-6.616 2.1ZM10.393 91.791h38.33c-1.172-.651-2.132-1.644-2.88-2.978-.75-1.335-1.042-2.751-.88-4.249H9.222c-.52 0-.895-.105-1.123-.317-.227-.212-.341-.545-.341-1 0-3.028.789-5.942 2.368-8.741 1.579-2.8 3.751-5.306 6.518-7.52 2.767-2.213 5.941-3.963 9.522-5.249 3.58-1.285 7.373-1.928 11.377-1.928 2.05 0 4.028.162 5.932.488a32.85 32.85 0 0 1 5.47 1.416 28.59 28.59 0 0 1 5.004 2.344 23.384 23.384 0 0 1 2.49-2.76 23.75 23.75 0 0 1 3.028-2.416 36.016 36.016 0 0 0-6.714-3.491 40.04 40.04 0 0 0-7.349-2.1 42.93 42.93 0 0 0-7.861-.708c-5.111 0-9.904.846-14.38 2.54-4.476 1.692-8.415 4.003-11.817 6.933-3.401 2.93-6.062 6.25-7.983 9.96-1.92 3.712-2.88 7.602-2.88 11.67 0 2.702.83 4.729 2.49 6.08 1.66 1.35 4.134 2.026 7.421 2.026Zm27.198-44.775c3.352 0 6.412-.904 9.18-2.71 2.766-1.807 4.98-4.232 6.64-7.276 1.66-3.043 2.49-6.42 2.49-10.132 0-3.613-.822-6.9-2.466-9.863-1.644-2.962-3.849-5.322-6.616-7.08-2.767-1.758-5.843-2.637-9.228-2.637-3.353 0-6.421.887-9.205 2.662-2.783 1.774-5.004 4.158-6.665 7.153-1.66 2.995-2.474 6.282-2.441 9.863 0 3.679.83 7.031 2.49 10.059 1.66 3.027 3.874 5.444 6.64 7.25 2.768 1.807 5.828 2.71 9.18 2.71Zm0-7.276c-1.986 0-3.817-.57-5.494-1.709-1.676-1.14-3.019-2.677-4.028-4.614-1.009-1.937-1.514-4.077-1.514-6.42 0-2.28.497-4.363 1.49-6.25.992-1.889 2.327-3.386 4.004-4.493a9.849 9.849 0 0 1 5.542-1.66c2.05 0 3.914.545 5.59 1.636 1.677 1.09 3.011 2.563 4.004 4.418.993 1.856 1.49 3.94 1.49 6.25 0 2.377-.505 4.541-1.514 6.495-1.01 1.953-2.36 3.499-4.053 4.638-1.693 1.14-3.532 1.71-5.517 1.71Zm139.648 52.051c3.32 0 5.81-.675 7.471-2.026 1.66-1.351 2.49-3.378 2.49-6.08 0-4.068-.96-7.958-2.881-11.67-1.92-3.71-4.582-7.03-7.983-9.96-3.402-2.93-7.341-5.241-11.817-6.934-4.476-1.693-9.27-2.539-14.38-2.539-2.701 0-5.33.236-7.885.708a39.329 39.329 0 0 0-7.349 2.1 36.294 36.294 0 0 0-6.689 3.49 22.363 22.363 0 0 1 3.002 2.418 28.882 28.882 0 0 1 2.515 2.759 28.607 28.607 0 0 1 5.005-2.344 32.838 32.838 0 0 1 5.469-1.416 35.152 35.152 0 0 1 5.932-.488c3.971 0 7.748.643 11.329 1.928 3.58 1.286 6.754 3.036 9.521 5.25 2.767 2.213 4.948 4.72 6.543 7.519 1.595 2.8 2.393 5.713 2.393 8.74 0 .456-.122.79-.367 1.001-.244.212-.61.317-1.098.317h-35.742c.163 1.498-.139 2.914-.904 4.249-.765 1.334-1.733 2.327-2.905 2.978h38.33Zm-27.148-44.775c3.353 0 6.412-.904 9.179-2.71 2.767-1.807 4.981-4.224 6.641-7.251 1.66-3.028 2.49-6.38 2.49-10.059 0-3.58-.83-6.868-2.49-9.863-1.66-2.995-3.874-5.38-6.641-7.153-2.767-1.775-5.826-2.662-9.179-2.662-3.386 0-6.462.88-9.229 2.637-2.767 1.758-4.972 4.118-6.616 7.08-1.644 2.962-2.466 6.25-2.466 9.863 0 3.711.83 7.089 2.49 10.132 1.66 3.044 3.874 5.469 6.641 7.276 2.767 1.806 5.827 2.71 9.18 2.71Zm0-7.276c-1.986 0-3.825-.57-5.518-1.709-1.693-1.14-3.044-2.685-4.053-4.638-1.009-1.954-1.513-4.118-1.513-6.495 0-2.31.496-4.394 1.489-6.25.993-1.855 2.327-3.328 4.004-4.418 1.676-1.091 3.54-1.636 5.591-1.636a9.85 9.85 0 0 1 5.542 1.66c1.676 1.107 3.01 2.604 4.003 4.492.993 1.888 1.49 3.971 1.49 6.25 0 2.344-.505 4.484-1.514 6.421-1.01 1.937-2.352 3.475-4.028 4.614-1.677 1.14-3.508 1.71-5.493 1.71Z" fill="#000" fill-rule="nonzero"/></svg>
