<svg width="96" height="97" xmlns="http://www.w3.org/2000/svg">
  <path d="M.155 39.577c0 5.356 1.012 10.391 3.036 15.104 2.025 4.714 4.824 8.86 8.399 12.437 3.575 3.579 7.71 6.37 12.406 8.373 4.696 2.004 9.74 3.005 15.13 3.005 4.224 0 8.253-.642 12.089-1.927 3.835-1.285 7.345-3.08 10.53-5.386l24.031 24.094c.587.56 1.235.973 1.943 1.239.709.266 1.44.399 2.193.399 1.666 0 3.02-.548 4.064-1.643 1.043-1.096 1.565-2.463 1.565-4.1 0-.781-.14-1.515-.42-2.203a6.03 6.03 0 0 0-1.156-1.83L70.037 63.16c2.514-3.26 4.475-6.9 5.885-10.918 1.41-4.02 2.114-8.24 2.114-12.664 0-5.385-1.01-10.425-3.031-15.12-2.021-4.696-4.81-8.833-8.368-12.412-3.557-3.578-7.694-6.377-12.41-8.398-4.717-2.021-9.75-3.032-15.1-3.032-5.392 0-10.435 1.01-15.131 3.032-4.696 2.02-8.831 4.82-12.406 8.398-3.575 3.579-6.374 7.716-8.399 12.411C1.167 29.152.155 34.192.155 39.576Zm8.36 0c0-4.224.786-8.187 2.358-11.888a30.313 30.313 0 0 1 6.58-9.749c2.816-2.797 6.074-4.99 9.775-6.58 3.701-1.59 7.667-2.384 11.899-2.384 4.223 0 8.177.795 11.861 2.384a31.271 31.271 0 0 1 9.749 6.58c2.815 2.798 5.017 6.047 6.606 9.749 1.59 3.7 2.384 7.664 2.384 11.888 0 4.23-.795 8.188-2.384 11.872a31.053 31.053 0 0 1-6.606 9.749 31.056 31.056 0 0 1-9.749 6.606c-3.684 1.59-7.638 2.384-11.861 2.384-4.232 0-8.198-.795-11.899-2.384a30.973 30.973 0 0 1-9.774-6.606 30.69 30.69 0 0 1-6.58-9.749C9.3 47.765 8.514 43.808 8.514 39.577Z" fill="#fff" fill-rule="nonzero" />
</svg>
