<svg width="88" height="111" xmlns="http://www.w3.org/2000/svg"><path d="M15.843 110.26H71.85c5.11 0 8.944-1.27 11.5-3.809 2.554-2.539 3.832-6.315 3.832-11.328v-48.73c0-5.013-1.278-8.79-3.833-11.328-2.555-2.54-6.388-3.81-11.499-3.81H58.226v7.862h13.477c2.408 0 4.28.651 5.615 1.953 1.334 1.302 2.002 3.223 2.002 5.762v47.852c0 2.539-.668 4.46-2.002 5.761-1.335 1.302-3.207 1.953-5.615 1.953H15.94c-2.442 0-4.313-.65-5.615-1.953-1.302-1.302-1.954-3.222-1.954-5.761V46.832c0-2.54.652-4.46 1.954-5.762 1.302-1.302 3.173-1.953 5.615-1.953h13.525v-7.861H15.843c-5.11 0-8.943 1.261-11.499 3.784C1.79 37.563.511 41.347.511 46.393v48.73c0 5.046 1.278 8.83 3.833 11.353 2.556 2.522 6.389 3.784 11.5 3.784Zm27.979-38.233c1.074 0 1.993-.374 2.758-1.123.765-.748 1.148-1.644 1.148-2.685V18.072l-.293-7.324 3.271 3.467 7.422 7.91c.684.781 1.563 1.172 2.637 1.172 1.01 0 1.856-.326 2.54-.977.683-.65 1.024-1.48 1.024-2.49 0-.911-.39-1.758-1.171-2.539L46.654 1.373c-.489-.488-.952-.83-1.392-1.025a3.506 3.506 0 0 0-1.44-.293c-.489 0-.952.097-1.392.293-.44.195-.92.537-1.44 1.025L24.486 17.291c-.749.781-1.123 1.628-1.123 2.54 0 1.008.325 1.838.976 2.49.651.65 1.498.976 2.54.976 1.106 0 2.001-.39 2.685-1.172l7.373-7.91 3.32-3.467-.293 7.324V68.22c0 1.041.383 1.937 1.148 2.685.765.749 1.668 1.123 2.71 1.123Z" fill="#000" fill-rule="nonzero"/></svg>
