<svg width="103" height="109" xmlns="http://www.w3.org/2000/svg"><path d="M16.033 108.75h71.631c5.078 0 8.903-1.27 11.475-3.809 2.571-2.539 3.857-6.315 3.857-11.328V43.467c0-5.013-1.286-8.79-3.857-11.328-2.572-2.54-6.397-3.809-11.475-3.809h-71.63c-5.111 0-8.944 1.262-11.5 3.784C1.98 34.637.701 38.421.701 43.467v50.146c0 5.046 1.278 8.83 3.833 11.353 2.556 2.523 6.389 3.784 11.5 3.784Zm.098-7.861c-2.441 0-4.313-.651-5.615-1.953-1.302-1.303-1.953-3.223-1.953-5.762V43.906c0-2.539.65-4.46 1.953-5.761 1.302-1.303 3.174-1.954 5.615-1.954h71.387c2.409 0 4.28.651 5.615 1.954 1.335 1.302 2.002 3.222 2.002 5.761v49.268c0 2.539-.667 4.46-2.002 5.762-1.335 1.302-3.206 1.953-5.615 1.953H16.13Zm-5.127-80.42h81.738c-.39-2.214-1.164-3.915-2.319-5.103-1.156-1.188-2.955-1.782-5.396-1.782H18.72c-2.442 0-4.248.594-5.42 1.782-1.172 1.188-1.937 2.89-2.295 5.103ZM21.063 6.943h61.62c-.162-2.083-.838-3.654-2.026-4.712C79.47 1.173 77.752.645 75.506.645H28.19c-2.246 0-3.963.528-5.151 1.586-1.188 1.058-1.847 2.63-1.977 4.712Zm.341 97.852h60.987a23.235 23.235 0 0 0-3.687-8.594c-1.807-2.604-4.06-4.875-6.763-6.811-2.701-1.937-5.753-3.435-9.155-4.493-3.402-1.057-7.04-1.586-10.913-1.586-3.841 0-7.463.529-10.864 1.586-3.402 1.058-6.454 2.556-9.155 4.493-2.702 1.936-4.957 4.207-6.763 6.811a23.238 23.238 0 0 0-3.687 8.594Zm30.469-28.857c2.832.032 5.396-.684 7.69-2.149 2.295-1.465 4.118-3.45 5.47-5.957 1.35-2.506 2.026-5.338 2.026-8.496 0-2.962-.676-5.68-2.027-8.154-1.35-2.474-3.174-4.444-5.468-5.909-2.295-1.464-4.859-2.197-7.691-2.197-2.8 0-5.347.733-7.642 2.197-2.294 1.465-4.117 3.435-5.468 5.909-1.351 2.474-2.027 5.192-2.027 8.154.033 3.158.717 5.981 2.051 8.472 1.335 2.49 3.15 4.46 5.444 5.908 2.295 1.448 4.843 2.189 7.642 2.222Z" fill="#000" fill-rule="nonzero"/></svg>
