<svg viewBox="0 0 28 26" xmlns="http://www.w3.org/2000/svg"><g stroke="none" fill="none" fill-rule="evenodd"><path d="M25.5,6.4 C25,5.1 24.2,4 23.1,3 C22.1,2 20.9,1.3 19.6,0.8 C18.3,0.3 16.9,0 15.5,0 L10.8,0 C9.4,0 8,0.3 6.7,0.8 C5.4,1.3 4.3,2 3.2,3 C2.2,4 1.4,5.1 0.8,6.4 C0.3,7.7 0,9 0,10.5 L0,14.9 C0,16.3 0.3,17.7 0.8,19 C1.4,20.2 2.2,21.4 3.2,22.4 C4.3,23.4 5.4,24.1 6.7,24.6 C8,25.1 9.4,25.4 10.8,25.4 L15.5,25.4 C16.9,25.4 18.3,25.1 19.6,24.6 C20.9,24.1 22.1,23.4 23.1,22.4 C24.2,21.4 25,20.2 25.5,19 C26,17.7 26.3,16.3 26.3,14.9 L26.3,10.5 C26.3,9 26,7.7 25.5,6.4" fill="#000000"></path><path d="M25.3,14.9 C25.3,16.2 25,17.4 24.5,18.6 C24.1,19.7 23.3,20.7 22.4,21.6 C21.5,22.5 20.4,23.2 19.2,23.6 C18.1,24.1 16.8,24.3 15.5,24.3 L15.5,24.3 L10.9,24.3 C9.6,24.3 8.3,24.1 7.1,23.6 C6,23.2 4.9,22.5 4,21.6 C3,20.7 2.3,19.7 1.8,18.6 C1.3,17.4 1.1,16.2 1.1,14.9 L1.1,10.5 C1.1,9.2 1.3,8 1.8,6.8 C2.3,5.7 3,4.7 4,3.8 C4.9,2.9 6,2.2 7.1,1.8 C8.3,1.3 9.6,1.1 10.9,1.1 L15.5,1.1 C16.8,1.1 18.1,1.3 19.2,1.8 C20.4,2.2 21.5,2.9 22.4,3.8 C23.3,4.7 24.1,5.7 24.5,6.8 C25,8 25.3,9.2 25.3,10.5 L25.3,14.9 Z" fill="#FEFEFE"></path><path d="M18,13.8 C18,15.8 16.4,17.4 14.3,17.4 L11.9,17.4 C9.9,17.4 8.2,15.8 8.2,13.8 L8.2,11.7 C8.2,9.7 9.9,8.1 11.9,8.1 L14.3,8.1 C16.4,8.1 18,9.7 18,11.7 L18,13.8 Z M21.3,4.8 C19.7,3.3 17.7,2.5 15.4,2.5 L10.8,2.5 C8.5,2.5 6.5,3.3 4.9,4.8 C3.3,6.4 2.4,8.3 2.4,10.5 L2.4,14.9 C2.4,17.1 3.3,19.1 4.9,20.6 C6.5,22.1 8.5,22.9 10.8,22.9 L15.4,22.9 C17.7,22.9 19.7,22.1 21.3,20.6 C23,19.1 23.8,17.1 23.8,14.9 L23.8,10.5 C23.8,8.3 23,6.4 21.3,4.8 L21.3,4.8 Z" fill="#D30000"></path><path d="M12.5,10.6 C12.1,10.6 11.7,10.8 11.4,11 C11.1,11.3 11,11.6 11,12 L11,13.4 C11,13.8 11.1,14.2 11.4,14.4 C11.7,14.7 12.1,14.9 12.5,14.9 L13.9,14.9 C14.3,14.9 14.7,14.7 15,14.4 C15.3,14.2 15.4,13.8 15.4,13.4 L15.4,12 C15.4,11.6 15.3,11.3 15,11 C14.7,10.8 14.3,10.6 13.9,10.6 L12.5,10.6 Z" fill="#000000"></path></g></svg>
