<svg width="92" height="92" viewBox="0 0 92 92" fill="none" xmlns="http://www.w3.org/2000/svg">
<path d="M84.54 7.22L78.46 10.34C85.87 24.47 80.81 45.12 65.14 60.12C53.8 71 39.42 76.88 19.52 77V91.17C42.9 91.17 60.63 81.57 73.84 68.65C92.85 50 97.45 23.22 84.54 7.22Z" fill="#00BDFF"/>
<path d="M10.46 60.62C15.8061 60.62 20.14 56.2861 20.14 50.94C20.14 45.5939 15.8061 41.26 10.46 41.26C5.11388 41.26 0.779999 45.5939 0.779999 50.94C0.779999 56.2861 5.11388 60.62 10.46 60.62Z" fill="#ED1E79"/>
<path d="M43.28 36.17C49.12 30.45 50.03 22.06 45.28 17.44C40.53 12.82 32.02 13.7 26.18 19.44C20.34 25.18 19.44 33.55 24.18 38.17C28.92 42.79 37.45 41.9 43.28 36.17Z" fill="#6DDC00"/>
<path d="M65.69 7.41999C54.49 -3.55001 32.27 -1.23001 17.76 13C13.7127 17.0021 10.652 21.891 8.82001 27.28H13.27C14.39 23.06 17.19 18.93 20.79 15.4C31.12 5.25999 46.65 3.52999 54.62 11.34C62.59 19.15 61.18 33.86 50.85 44C44.66 50.08 36.41 53.19 29.43 53V65.57C40.6554 65.03 51.3476 60.6202 59.69 53.09C74.63 39.3 76.88 18.39 65.69 7.41999V7.41999Z" fill="#00BDFF"/>
</svg>
